<svg width="90" height="86" viewBox="0 0 90 86" fill="none" xmlns="http://www.w3.org/2000/svg">
<path id="Vector" d="M45.8134 29.7536L37.6617 21.6019H49.074C53.5574 21.6019 57.2257 25.2701 57.2257 29.7536V41.1659L49.074 33.0142V29.7536H45.8134ZM89.8323 29.7536V21.6019H73.529C69.0456 21.6019 65.3773 25.2701 65.3773 29.7536V37.9052C65.3773 42.3886 69.0456 46.0569 73.529 46.0569H81.6806V54.2085H70.2683L78.42 62.3602H81.6806C86.1641 62.3602 89.8323 58.6919 89.8323 54.2085V46.0569C89.8323 41.5735 86.1641 37.9052 81.6806 37.9052H73.529V29.7536H89.8323ZM86.1641 80.7014L80.8655 86L54.7802 59.9147C53.5574 61.1374 51.5195 62.3602 49.074 62.3602H32.7707V37.4976L24.619 29.346V62.3602H16.4674V46.0569H8.31572V62.3602H0.164062V29.7536C0.164062 25.2701 3.83231 21.6019 8.31572 21.6019H16.875L0.571646 5.29858L5.87022 0L86.1641 80.7014ZM16.4674 29.7536H8.31572V37.9052H16.4674V29.7536ZM49.074 53.8009L40.9224 45.6493V54.2085H49.074V53.8009Z" fill="white"/>
</svg>
