<svg width="115" height="24" viewBox="0 0 115 24" fill="none" xmlns="http://www.w3.org/2000/svg">
<g id="App Gallery">
<path d="M5.22049 11.6318H10.0304L8.30847 6.94154C8.07144 6.29359 7.83846 5.57798 7.60877 4.79413C7.40146 5.48756 7.17543 6.19559 6.93106 6.91892L5.22049 11.6318ZM10.8523 13.8584H4.4096L2.83259 18.2436H0L6.30913 1.86698H8.98618L15.4399 18.2436H12.4631L10.8523 13.8584Z" fill="white"/>
<path d="M23.7957 15.2656C24.3549 14.5009 24.6345 13.3837 24.6345 11.9144C24.6345 10.5509 24.403 9.5617 23.9403 8.94745C23.4772 8.33351 22.8608 8.02652 22.0906 8.02652C21.5575 8.02652 21.0651 8.15487 20.6134 8.41079C20.1618 8.66701 19.7321 9.00973 19.3248 9.43921V15.9719C19.5989 16.1074 19.9174 16.2149 20.2803 16.2937C20.6432 16.3733 21.0024 16.4128 21.3576 16.4128C22.4242 16.4128 23.2365 16.0301 23.7957 15.2656ZM16.5814 9.03246C16.5814 8.12832 16.5517 7.13358 16.4926 6.04875H19.0694C19.1656 6.5536 19.2324 7.06985 19.2694 7.59703C20.3357 6.41435 21.5575 5.82254 22.9349 5.82254C23.7348 5.82254 24.4753 6.02788 25.1566 6.43839C25.8376 6.84921 26.3876 7.49713 26.8059 8.38234C27.2246 9.26785 27.4337 10.3927 27.4337 11.7562C27.4337 13.1803 27.1949 14.3973 26.7171 15.4067C26.2394 16.4166 25.5712 17.1811 24.7123 17.7013C23.8533 18.2209 22.8608 18.481 21.7355 18.481C20.9205 18.481 20.117 18.3415 19.3248 18.0629V23.1034L16.5814 23.3408V9.03246Z" fill="white"/>
<path d="M36.3131 15.2656C36.8723 14.5009 37.1519 13.3837 37.1519 11.9144C37.1519 10.5509 36.9203 9.5617 36.4577 8.94745C35.9946 8.33351 35.3782 8.02652 34.608 8.02652C34.0749 8.02652 33.5825 8.15487 33.1308 8.41079C32.6788 8.66701 32.2495 9.00973 31.8422 9.43921V15.9719C32.1163 16.1074 32.4344 16.2149 32.7977 16.2937C33.1602 16.3733 33.5194 16.4128 33.8749 16.4128C34.9412 16.4128 35.7539 16.0301 36.3131 15.2656ZM29.0984 9.03246C29.0984 8.12832 29.0687 7.13358 29.0096 6.04875H31.5868C31.683 6.5536 31.7497 7.06985 31.7868 7.59703C32.8531 6.41435 34.0749 5.82254 35.4523 5.82254C36.2522 5.82254 36.9922 6.02788 37.674 6.43839C38.355 6.84921 38.905 7.49713 39.3236 8.38234C39.7415 9.26785 39.9511 10.3927 39.9511 11.7562C39.9511 13.1803 39.7118 14.3973 39.2345 15.4067C38.7567 16.4166 38.0882 17.1811 37.2296 17.7013C36.3703 18.2209 35.3782 18.481 34.2525 18.481C33.4379 18.481 32.6344 18.3415 31.8422 18.0629V23.1034L29.0984 23.3408V9.03246Z" fill="white"/>
<path d="M44.991 17.4694C43.8059 16.8029 42.8952 15.8475 42.2586 14.6043C41.6213 13.3611 41.3032 11.8918 41.3032 10.1965C41.3032 8.35829 41.6697 6.79642 42.4028 5.51163C43.1359 4.22729 44.1339 3.26274 45.3961 2.61844C46.659 1.9743 48.075 1.65215 49.6454 1.65215C50.5708 1.65215 51.4539 1.75582 52.2946 1.96291C53.1348 2.17029 53.9178 2.45451 54.6439 2.81635L53.9438 4.96357C52.485 4.2554 51.0929 3.90118 49.7676 3.90118C48.6492 3.90118 47.6699 4.1443 46.8297 4.63034C45.9891 5.11642 45.3352 5.83027 44.8689 6.77208C44.4022 7.714 44.1692 8.85166 44.1692 10.1851C44.1692 11.3534 44.3486 12.3891 44.7074 13.2933C45.067 14.1975 45.6335 14.9135 46.4074 15.4407C47.1812 15.9682 48.1568 16.2317 49.3342 16.2317C49.8674 16.2317 50.4005 16.1866 50.9337 16.0962C51.4668 16.006 51.9669 15.8741 52.4332 15.7006V12.3891H48.7123V10.2191H55.0993V17.1136C54.1809 17.5503 53.2163 17.886 52.2058 18.1194C51.1945 18.3527 50.1895 18.4695 49.1897 18.4695C47.5753 18.4695 46.1754 18.1366 44.991 17.4694Z" fill="white"/>
<path d="M63.2052 15.983C63.775 15.7046 64.2418 15.3577 64.6046 14.9434V12.683C63.8565 12.6003 63.2456 12.5587 62.7719 12.5587C61.6388 12.5587 60.8555 12.745 60.4229 13.1183C59.9892 13.4907 59.7727 13.994 59.7727 14.6268C59.7727 15.2301 59.9301 15.6762 60.2449 15.9663C60.5597 16.2563 60.9872 16.4013 61.5277 16.4013C62.0755 16.4013 62.6346 16.262 63.2052 15.983ZM64.849 18.2436C64.7525 17.7688 64.6894 17.2303 64.66 16.6275C64.2381 17.1401 63.6884 17.575 63.0104 17.933C62.3334 18.2907 61.5684 18.4695 60.7168 18.4695C60.0281 18.4695 59.4006 18.3321 58.8338 18.0569C58.268 17.7822 57.8177 17.3677 57.4846 16.8137C57.1514 16.2601 56.9845 15.584 56.9845 14.785C56.9845 13.6023 57.4028 12.6585 58.2397 11.9538C59.0766 11.2494 60.4724 10.8973 62.4274 10.8973C63.1605 10.8973 63.8862 10.9502 64.6046 11.0555V10.8182C64.6046 9.74079 64.3786 8.98173 63.9269 8.5406C63.4752 8.10017 62.8273 7.87968 61.9834 7.87968C61.3981 7.87968 60.7725 7.96645 60.1059 8.13956C59.4395 8.31309 58.8543 8.52017 58.3509 8.76123L57.9176 6.72687C58.4063 6.50066 59.0506 6.29358 59.8505 6.10515C60.6504 5.91703 61.4943 5.82254 62.3829 5.82254C63.4198 5.82254 64.3008 5.98266 65.0266 6.30276C65.7524 6.62316 66.3188 7.17341 66.7261 7.95289C67.1334 8.73309 67.3371 9.78234 67.3371 11.1007V15.9491C67.3371 16.4542 67.3664 17.2193 67.4258 18.2436H64.849Z" fill="white"/>
<path d="M69.442 15.3163V0.906229L72.1745 0.680176V14.819C72.1745 15.339 72.2614 15.7061 72.4354 15.9211C72.6093 16.1354 72.8852 16.2434 73.2631 16.2434C73.4333 16.2434 73.674 16.202 73.9848 16.119L74.307 18.1194C74.0476 18.2249 73.7313 18.3097 73.3578 18.3736C72.9835 18.4374 72.6298 18.4695 72.2967 18.4695C70.3931 18.4695 69.442 17.4186 69.442 15.3163Z" fill="white"/>
<path d="M76.2733 15.3163V0.906229L79.0057 0.680176V14.819C79.0057 15.339 79.0927 15.7061 79.2666 15.9211C79.4409 16.1354 79.7168 16.2434 80.0944 16.2434C80.2646 16.2434 80.5053 16.202 80.8165 16.119L81.1386 18.1194C80.8792 18.2249 80.5626 18.3097 80.189 18.3736C79.8148 18.4374 79.4611 18.4695 79.1279 18.4695C77.2247 18.4695 76.2733 17.4186 76.2733 15.3163Z" fill="white"/>
<path d="M89.701 10.7278C89.646 9.75579 89.4075 9.02694 88.9782 8.5406C88.5489 8.05496 87.9729 7.8117 87.2574 7.8117C86.5602 7.8117 85.9805 8.05687 85.5182 8.54642C85.0559 9.03642 84.7513 9.76341 84.6119 10.7278H89.701ZM92.3759 12.5021H84.5348C84.6596 15.0566 85.8557 16.3336 88.1233 16.3336C88.6847 16.3336 89.2607 16.2639 89.8515 16.1246C90.4386 15.9849 91.0036 15.7987 91.543 15.5649L92.1447 17.4749C90.8018 18.1383 89.2974 18.4695 87.6243 18.4695C86.3474 18.4695 85.276 18.2249 84.4028 17.7351C83.5258 17.2454 82.869 16.5409 82.4287 15.6214C81.9892 14.7026 81.7687 13.5949 81.7687 12.2987C81.7687 10.9502 82.002 9.78966 82.4691 8.81768C82.9351 7.84567 83.5845 7.10367 84.4174 6.59123C85.2503 6.07891 86.2117 5.82254 87.3014 5.82254C88.4352 5.82254 89.3782 6.09205 90.1377 6.63088C90.8972 7.1693 91.4586 7.88726 91.8255 8.78367C92.1924 9.68072 92.3759 10.6712 92.3759 11.7562V12.5021Z" fill="white"/>
<path d="M94.4526 9.11154C94.4526 8.44115 94.4196 7.42031 94.3609 6.04875H96.9293C96.9733 6.38782 97.0137 6.79277 97.0577 7.2638C97.0981 7.73458 97.1238 8.11695 97.1384 8.4108C97.4576 7.87588 97.7695 7.42568 98.0777 7.06037C98.3859 6.69462 98.7455 6.3973 99.1565 6.16714C99.5674 5.93746 100.033 5.82255 100.562 5.82255C100.984 5.82255 101.343 5.86791 101.648 5.95833L101.303 8.37697C101.039 8.29413 100.742 8.25258 100.415 8.25258C99.7729 8.25258 99.2078 8.42028 98.7272 8.75568C98.2465 9.09067 97.7328 9.64265 97.1825 10.4112V18.2436H94.4526V9.11154Z" fill="white"/>
<path d="M103.189 23.2333C102.789 23.162 102.459 23.0809 102.202 22.9906L102.701 20.9562C102.884 21.0086 103.119 21.0597 103.402 21.1086C103.681 21.158 103.948 21.1821 104.202 21.1821C105.416 21.1821 106.326 20.3869 106.931 18.7973L107.111 18.3453L102.69 6.04874H105.633L107.856 12.9202C108.216 14.0959 108.451 14.9963 108.553 15.6214C108.762 14.7399 109.005 13.8584 109.287 12.9768L111.544 6.04874H114.307L109.9 18.402C109.485 19.5697 109.034 20.5113 108.553 21.2274C108.073 21.943 107.504 22.4742 106.851 22.821C106.194 23.1672 105.405 23.3408 104.477 23.3408C104.018 23.3408 103.589 23.3053 103.189 23.2333Z" fill="white"/>
</g>
</svg>
