<svg width="109" height="23" viewBox="0 0 109 23" fill="none" xmlns="http://www.w3.org/2000/svg">
<g id="App Store">
<path d="M68.3439 2.95266V6.16009H66.259V8.2635H68.3439V15.4105C68.3439 17.8509 69.4888 18.8271 72.3691 18.8271C72.8753 18.8271 73.3574 18.769 73.7792 18.6992V16.6191C73.4176 16.6539 73.1887 16.6772 72.7909 16.6772C71.5014 16.6772 70.935 16.0961 70.935 14.7713V8.2635H73.7792V6.16009H70.935V2.95266H68.3439Z" fill="white"/>
<path d="M81.1166 19.0014C84.949 19.0014 87.2991 16.5261 87.2991 12.4239C87.2991 8.34485 84.937 5.85794 81.1166 5.85794C77.2842 5.85794 74.9221 8.34485 74.9221 12.4239C74.9221 16.5261 77.2722 19.0014 81.1166 19.0014ZM81.1166 16.7818C78.863 16.7818 77.5976 15.1897 77.5976 12.4239C77.5976 9.68128 78.863 8.07757 81.1166 8.07757C83.3582 8.07757 84.6357 9.68128 84.6357 12.4239C84.6357 15.1781 83.3582 16.7818 81.1166 16.7818Z" fill="white"/>
<path d="M89.3097 18.7573H91.9008V11.285C91.9008 9.50696 93.2867 8.30999 95.2511 8.30999C95.7091 8.30999 96.4804 8.39134 96.6973 8.46106V5.99739C96.4201 5.92766 95.926 5.8928 95.5404 5.8928C93.8291 5.8928 92.3708 6.79925 91.9972 8.0427H91.8044V6.10198H89.3097V18.7573Z" fill="white"/>
<path d="M103.131 7.9846C105.047 7.9846 106.3 9.27454 106.361 11.2617H99.7324C99.877 9.28616 101.215 7.9846 103.131 7.9846ZM106.349 15.3407C105.867 16.3285 104.794 16.8747 103.227 16.8747C101.154 16.8747 99.8167 15.4686 99.7324 13.249V13.1095H109V12.2379C109 8.2635 106.795 5.85794 103.143 5.85794C99.4431 5.85794 97.0931 8.4262 97.0931 12.4703C97.0931 16.5145 99.3949 19.0014 103.155 19.0014C106.156 19.0014 108.253 17.6069 108.843 15.3407H106.349Z" fill="white"/>
<path d="M51.352 14.0839C51.5519 17.1915 54.2375 19.1789 58.2346 19.1789C62.5065 19.1789 65.1796 17.0951 65.1796 13.7708C65.1796 11.157 63.6557 9.71161 59.9584 8.88051L57.9723 8.41076C55.624 7.88079 54.6746 7.17014 54.6746 5.92951C54.6746 4.36367 56.1486 3.33985 58.3595 3.33985C60.458 3.33985 61.907 4.33958 62.1693 5.94155H64.8923C64.7299 3.01464 62.0569 0.954956 58.397 0.954956C54.4623 0.954956 51.8392 3.01464 51.8392 6.11018C51.8392 8.66371 53.3256 10.1814 56.5858 10.9161L58.9091 11.4581C61.2949 12.0001 62.3442 12.7951 62.3442 14.1201C62.3442 15.6618 60.6953 16.782 58.4469 16.782C56.0362 16.782 54.3624 15.7341 54.125 14.0839H51.352Z" fill="white"/>
<path d="M24.5111 5.8928C22.7275 5.8928 21.1849 6.75276 20.3895 8.19378H20.1967V6.10198H17.702V22.9642H20.2931V16.8399H20.4979C21.1849 18.1763 22.6672 18.9665 24.5352 18.9665C27.8494 18.9665 29.9584 16.4448 29.9584 12.4239C29.9584 8.40296 27.8494 5.8928 24.5111 5.8928ZM23.776 16.7237C21.6067 16.7237 20.2449 15.0735 20.2449 12.4355C20.2449 9.78587 21.6067 8.13567 23.788 8.13567C25.9814 8.13567 27.295 9.751 27.295 12.4239C27.295 15.1083 25.9814 16.7237 23.776 16.7237Z" fill="white"/>
<path d="M39.025 5.8928C37.2414 5.8928 35.6988 6.75276 34.9034 8.19378H34.7106V6.10198H32.2159V22.9642H34.807V16.8399H35.0118C35.6988 18.1763 37.1811 18.9665 39.0491 18.9665C42.3633 18.9665 44.4723 16.4448 44.4723 12.4239C44.4723 8.40296 42.3633 5.8928 39.025 5.8928ZM38.2899 16.7237C36.1206 16.7237 34.7588 15.0735 34.7588 12.4355C34.7588 9.78587 36.1206 8.13567 38.3019 8.13567C40.4953 8.13567 41.8089 9.751 41.8089 12.4239C41.8089 15.1083 40.4953 16.7237 38.2899 16.7237Z" fill="white"/>
<path d="M13.0532 18.7573H16.026L9.51818 1.37653H6.50784L0 18.7573H2.87294L4.53425 14.1441H11.4043L13.0532 18.7573ZM7.86936 4.5323H8.08171L10.6923 11.8797H5.24624L7.86936 4.5323Z" fill="white"/>
</g>
</svg>
