<svg width="36" height="36" viewBox="0 0 36 36" fill="none" xmlns="http://www.w3.org/2000/svg">
<g id="App Gallery icon">
<path id="icon" fill-rule="evenodd" clip-rule="evenodd" d="M25.8715 0H10.1285C2.7125 0 0 2.71251 0 10.1285V25.8718C0 33.2876 2.7125 36 10.1285 36H25.8666C33.2826 36 36 33.2876 36 25.8718V10.1285C36 2.71251 33.2875 0 25.8715 0Z" fill="#C91C2E"/>
<path id="Huawei" d="M15.7039 20.8783H17.1477L16.4235 19.1943L15.7039 20.8783ZM15.3484 21.7273L14.9202 22.7072H13.9452L16.0188 18.0031H16.8612L18.9264 22.7072H17.9253L17.5024 21.7273H15.3484ZM31.038 22.704H31.9804V18.0031H31.038V22.704ZM27.2875 20.684H29.0242V19.8274H27.2875V18.8637H29.8087V18.006H26.3455V22.7068H29.8996V21.8494H27.2875V20.684ZM23.5432 21.2395L22.4745 18.0029H21.6954L20.6268 21.2395L19.5869 18.0052H18.5706L20.2111 22.7094H21.0016L22.0717 19.6194L23.1415 22.7094H23.9392L25.5755 18.0052H24.5853L23.5432 21.2395ZM12.5067 20.697C12.5067 21.4623 12.1266 21.8712 11.4366 21.8712C10.7427 21.8712 10.3607 21.4508 10.3607 20.6644V18.0057H9.40576V20.697C9.40576 22.0211 10.1413 22.7802 11.4237 22.7802C12.7185 22.7802 13.4613 22.0066 13.4613 20.6581V18.0029H12.5067V20.697ZM7.12716 18.0031H8.08172V22.7097H7.12716V20.7984H4.97056V22.7097H4.01562V18.0031H4.97056V19.9018H7.12716V18.0031Z" fill="white"/>
<path id="handle" d="M18.0001 12.0104C14.6961 12.0104 12.0078 9.32209 12.0078 6.01805H12.8544C12.8544 8.85538 15.1625 11.1638 18.0001 11.1638C20.8377 11.1638 23.1458 8.85538 23.1458 6.01805H23.9924C23.9924 9.32209 21.3041 12.0104 18.0001 12.0104Z" fill="white"/>
</g>
</svg>
