<svg width="30" height="38" viewBox="0 0 30 38" fill="none" xmlns="http://www.w3.org/2000/svg">
<g id="Apple logo">
<path d="M25.0568 20.1633C25.0934 17.3392 26.6221 14.667 29.0472 13.1878C27.5173 11.0201 24.9548 9.64565 22.2888 9.56289C19.4453 9.26677 16.6887 11.251 15.2397 11.251C13.7626 11.251 11.5317 9.59229 9.12928 9.64133C5.99788 9.7417 3.07863 11.508 1.55514 14.2241C-1.71976 19.8495 0.723022 28.1169 3.86011 32.664C5.42965 34.8905 7.26401 37.3777 9.66422 37.2895C12.013 37.1929 12.8902 35.8036 15.7253 35.8036C18.5342 35.8036 19.3572 37.2895 21.8061 37.2334C24.3264 37.1928 25.9143 34.9969 27.4288 32.7493C28.5565 31.1627 29.4243 29.4093 30 27.5539C27.0382 26.311 25.0602 23.3538 25.0568 20.1633Z" fill="white"/>
<path d="M20.4311 6.57249C21.8053 4.93582 22.4823 2.83216 22.3184 0.708252C20.219 0.927022 18.2796 1.92252 16.8869 3.4964C15.525 5.03415 14.8162 7.1008 14.9502 9.14353C17.0504 9.16498 19.1151 8.19647 20.4311 6.57249Z" fill="white"/>
</g>
</svg>
