<svg width="32" height="32" viewBox="0 0 32 32" fill="none" xmlns="http://www.w3.org/2000/svg">
<g id="bookmark_FILL0_wght300_GRAD0_opsz24 1">
<path id="Vector" d="M16.3922 22.8778L11.8781 24.8155C11.1929 25.1086 10.5419 25.0525 9.92513 24.6471C9.30838 24.2418 9 23.6717 9 22.9369V9.05583C9 8.48136 9.19902 7.9951 9.59706 7.59706C9.9951 7.19902 10.4814 7 11.0558 7H21.7285C22.303 7 22.7892 7.19902 23.1873 7.59706C23.5853 7.9951 23.7843 8.48136 23.7843 9.05583V22.9369C23.7843 23.6717 23.4759 24.2418 22.8592 24.6471C22.2425 25.0525 21.5915 25.1086 20.9062 24.8155L16.3922 22.8778ZM16.3922 20.9883L21.5863 23.2256C21.703 23.2766 21.8142 23.2657 21.9199 23.1928C22.0256 23.1199 22.0785 23.0214 22.0785 22.8975V9.05583C22.0785 8.96833 22.042 8.88813 21.9691 8.81521C21.8962 8.74231 21.816 8.70586 21.7285 8.70586H11.0558C10.9683 8.70586 10.8881 8.74231 10.8152 8.81521C10.7423 8.88813 10.7059 8.96833 10.7059 9.05583V22.8975C10.7059 23.0214 10.7587 23.1199 10.8644 23.1928C10.9702 23.2657 11.0813 23.2766 11.198 23.2256L16.3922 20.9883ZM16.3922 8.70586H10.7059H22.0785H16.3922Z" fill="white"/>
</g>
</svg>
