<svg width="101" height="9" viewBox="0 0 101 9" fill="none" xmlns="http://www.w3.org/2000/svg">
<g id="Download on the">
<path d="M0.5 0.448315V8.83294H3.62699C6.2078 8.83294 7.70228 7.29314 7.70228 4.61448C7.70228 1.97649 6.1958 0.448315 3.62699 0.448315H0.5ZM1.84442 1.63367H3.47694C5.27151 1.63367 6.33384 2.73767 6.33384 4.63191C6.33384 6.5552 5.28951 7.64758 3.47694 7.64758H1.84442V1.63367Z" fill="white"/>
<path d="M12.2793 8.95496C14.1879 8.95496 15.3583 7.71731 15.3583 5.66619C15.3583 3.62668 14.1819 2.38323 12.2793 2.38323C10.3707 2.38323 9.19435 3.62668 9.19435 5.66619C9.19435 7.71731 10.3647 8.95496 12.2793 8.95496ZM12.2793 7.84514C11.157 7.84514 10.5268 7.0491 10.5268 5.66619C10.5268 4.2949 11.157 3.49304 12.2793 3.49304C13.3957 3.49304 14.0319 4.2949 14.0319 5.66619C14.0319 7.04329 13.3957 7.84514 12.2793 7.84514Z" fill="white"/>
<path d="M25.325 2.50525H24.0346L22.8703 7.33381H22.7682L21.4238 2.50525H20.1874L18.843 7.33381H18.747L17.5766 2.50525H16.2682L18.0688 8.83294H19.3952L20.7396 4.17288H20.8416L22.1921 8.83294H23.5305L25.325 2.50525Z" fill="white"/>
<path d="M26.8111 8.83294H28.1015V5.13162C28.1015 4.14382 28.7077 3.52791 29.662 3.52791C30.6163 3.52791 31.0725 4.03342 31.0725 5.05027V8.83294H32.3629V4.7365C32.3629 3.23157 31.5586 2.38323 30.1002 2.38323C29.1158 2.38323 28.4676 2.8074 28.1495 3.51047H28.0535V2.50525H26.8111V8.83294Z" fill="white"/>
<path d="M34.3951 8.83294H35.6855V0.0357666H34.3951V8.83294Z" fill="white"/>
<path d="M40.5387 8.95496C42.4473 8.95496 43.6176 7.71731 43.6176 5.66619C43.6176 3.62668 42.4413 2.38323 40.5387 2.38323C38.6301 2.38323 37.4537 3.62668 37.4537 5.66619C37.4537 7.71731 38.6241 8.95496 40.5387 8.95496ZM40.5387 7.84514C39.4163 7.84514 38.7861 7.0491 38.7861 5.66619C38.7861 4.2949 39.4163 3.49304 40.5387 3.49304C41.655 3.49304 42.2912 4.2949 42.2912 5.66619C42.2912 7.04329 41.655 7.84514 40.5387 7.84514Z" fill="white"/>
<path d="M47.4624 7.88582C46.7602 7.88582 46.2501 7.55461 46.2501 6.98518C46.2501 6.42737 46.6582 6.13103 47.5585 6.07293L49.155 5.97415V6.50291C49.155 7.28733 48.4347 7.88582 47.4624 7.88582ZM47.1323 8.93752C47.9906 8.93752 48.7048 8.57727 49.095 7.94392H49.197V8.83294H50.4394V4.50989C50.4394 3.17346 49.5151 2.38323 47.8766 2.38323C46.3941 2.38323 45.3378 3.08049 45.2057 4.16707H46.4541C46.5982 3.71965 47.0963 3.46399 47.8166 3.46399C48.6988 3.46399 49.155 3.84168 49.155 4.50989V5.05608L47.3844 5.15486C45.8299 5.24783 44.9537 5.90442 44.9537 7.04329C44.9537 8.19959 45.8719 8.93752 47.1323 8.93752Z" fill="white"/>
<path d="M54.8184 8.93752C55.7187 8.93752 56.4809 8.52498 56.871 7.83352H56.973V8.83294H58.2094V0.0357666H56.919V3.51047H56.823C56.4689 2.81321 55.7127 2.40066 54.8184 2.40066C53.1678 2.40066 52.1055 3.66736 52.1055 5.66619C52.1055 7.67083 53.1558 8.93752 54.8184 8.93752ZM55.1845 3.52209C56.2648 3.52209 56.943 4.353 56.943 5.672C56.943 6.9968 56.2708 7.81609 55.1845 7.81609C54.0921 7.81609 53.4379 7.00842 53.4379 5.66619C53.4379 4.33557 54.0981 3.52209 55.1845 3.52209Z" fill="white"/>
<path d="M66.5773 8.95496C68.4859 8.95496 69.6563 7.71731 69.6563 5.66619C69.6563 3.62668 68.4799 2.38323 66.5773 2.38323C64.6687 2.38323 63.4923 3.62668 63.4923 5.66619C63.4923 7.71731 64.6627 8.95496 66.5773 8.95496ZM66.5773 7.84514C65.4549 7.84514 64.8247 7.0491 64.8247 5.66619C64.8247 4.2949 65.4549 3.49304 66.5773 3.49304C67.6936 3.49304 68.3298 4.2949 68.3298 5.66619C68.3298 7.04329 67.6936 7.84514 66.5773 7.84514Z" fill="white"/>
<path d="M71.3644 8.83294H72.6548V5.13162C72.6548 4.14382 73.261 3.52791 74.2153 3.52791C75.1696 3.52791 75.6257 4.03342 75.6257 5.05027V8.83294H76.9162V4.7365C76.9162 3.23157 76.1119 2.38323 74.6534 2.38323C73.6691 2.38323 73.0209 2.8074 72.7028 3.51047H72.6068V2.50525H71.3644V8.83294Z" fill="white"/>
<path d="M82.8592 0.930591V2.5343H81.8209V3.58601H82.8592V7.1595C82.8592 8.37971 83.4294 8.8678 84.8639 8.8678C85.1159 8.8678 85.356 8.83875 85.5661 8.80388V7.76379C85.386 7.78123 85.272 7.79285 85.0739 7.79285C84.4317 7.79285 84.1496 7.50232 84.1496 6.83992V3.58601H85.5661V2.5343H84.1496V0.930591H82.8592Z" fill="white"/>
<path d="M87.2982 8.83294H88.5886V5.13743C88.5886 4.17869 89.1768 3.53372 90.2332 3.53372C91.1455 3.53372 91.6316 4.04504 91.6316 5.05608V8.83294H92.922V4.74812C92.922 3.24319 92.0637 2.38904 90.6713 2.38904C89.687 2.38904 88.9968 2.81321 88.6787 3.52209H88.5766V0.0357666H87.2982V8.83294Z" fill="white"/>
<path d="M97.5771 3.44656C98.5314 3.44656 99.1556 4.09153 99.1856 5.08513H95.8845C95.9566 4.09734 96.6228 3.44656 97.5771 3.44656ZM99.1796 7.12463C98.9395 7.61853 98.4053 7.89163 97.6251 7.89163C96.5928 7.89163 95.9266 7.18855 95.8845 6.07874V6.00901H100.5V5.57322C100.5 3.58601 99.4017 2.38323 97.5831 2.38323C95.7405 2.38323 94.5701 3.66736 94.5701 5.68943C94.5701 7.7115 95.7165 8.95496 97.5891 8.95496C99.0836 8.95496 100.128 8.25769 100.422 7.12463H99.1796Z" fill="white"/>
</g>
</svg>
