<svg width="84" height="9" viewBox="0 0 84 9" fill="none" xmlns="http://www.w3.org/2000/svg">
<g id="Explore it on">
<path d="M0 0.116864H4.89027L4.75267 1.31862H1.43318V3.64598H4.56335V4.77196H1.43318V7.3502H4.93027L4.80991 8.56349H0V0.116864Z" fill="white"/>
<path d="M8.26113 4.25265L5.68133 0.116864H7.30935L9.05808 3.15617L10.8985 0.116864H12.4807L9.92363 4.20001L12.6928 8.56349H11.0416L9.06394 5.23862L7.05141 8.56349H5.46926L8.26113 4.25265Z" fill="white"/>
<path d="M17.3423 3.8879C17.648 3.60641 17.801 3.20844 17.801 2.6951C17.801 2.17393 17.645 1.7991 17.3339 1.5695C17.0224 1.3399 16.5645 1.22529 15.9609 1.22529H15.1812V4.22353C15.5404 4.28177 15.8156 4.31089 16.0067 4.31089C16.5912 4.31089 17.0367 4.17014 17.3423 3.8879ZM13.7476 0.116864H15.9836C17.0345 0.116864 17.8391 0.334891 18.3972 0.770197C18.9553 1.20588 19.2341 1.83569 19.2341 2.66001C19.2341 3.22001 19.109 3.70945 18.8588 4.12721C18.6082 4.54534 18.2596 4.86641 17.8123 5.08966C17.3654 5.31366 16.851 5.42529 16.2702 5.42529C15.9532 5.42529 15.5899 5.38646 15.1812 5.30843V8.56349H13.7476V0.116864Z" fill="white"/>
<path d="M20.6505 0.116864H22.0837V7.3151H25.5176L25.3973 8.56349H20.6505V0.116864Z" fill="white"/>
<path d="M31.4114 7.11386C31.8128 6.83984 32.1126 6.46277 32.3115 5.98229C32.5103 5.50219 32.6098 4.95264 32.6098 4.3344C32.6098 3.72773 32.5217 3.18752 32.3459 2.71264C32.1698 2.23813 31.8891 1.86032 31.5031 1.57808C31.1171 1.29621 30.6203 1.15509 30.0123 1.15509C29.4315 1.15509 28.9384 1.29808 28.5333 1.58405C28.1282 1.86965 27.8244 2.25307 27.6219 2.73317C27.4193 3.21365 27.3181 3.74341 27.3181 4.32282C27.3181 4.93322 27.4135 5.47978 27.6046 5.96176C27.7954 6.4441 28.0879 6.82528 28.4819 7.10528C28.8753 7.38528 29.3625 7.52528 29.9437 7.52528C30.5209 7.52528 31.01 7.38789 31.4114 7.11386ZM27.6964 8.14949C27.0887 7.79557 26.6242 7.29867 26.3032 6.65877C25.9821 6.01925 25.8218 5.27557 25.8218 4.42773C25.8218 3.53733 25.9924 2.75856 26.3347 2.09141C26.6767 1.42464 27.1698 0.909439 27.8138 0.545439C28.4577 0.182186 29.2172 0 30.0927 0C30.9297 0 31.6502 0.176214 32.2542 0.527894C32.8578 0.88032 33.3186 1.37498 33.6357 2.01264C33.953 2.65066 34.1115 3.38949 34.1115 4.22949C34.1115 5.13557 33.9387 5.9233 33.5927 6.59194C33.2467 7.26058 32.754 7.77616 32.1137 8.13754C31.4734 8.4993 30.7216 8.68015 29.8579 8.68015C29.0246 8.68015 28.304 8.50341 27.6964 8.14949Z" fill="white"/>
<path d="M37.9587 4.11265C38.3062 4.11265 38.614 4.04396 38.8815 3.90545C39.149 3.76769 39.3574 3.57318 39.5064 3.3223C39.6557 3.07142 39.7302 2.7806 39.7302 2.4502C39.7302 2.02646 39.5981 1.71622 39.3347 1.51985C39.0708 1.32348 38.6867 1.22529 38.1822 1.22529H37.1445V4.11265H37.9587ZM35.7113 0.116864H38.3084C39.2561 0.116864 39.9738 0.309503 40.4611 0.69441C40.9484 1.07932 41.192 1.62998 41.192 2.34529C41.192 2.79254 41.1039 3.18641 40.9282 3.52652C40.7524 3.867 40.5345 4.14401 40.2747 4.35756C40.0146 4.57148 39.7474 4.73089 39.4723 4.83617L42.0234 8.56349H40.3609L38.1994 5.2151H37.1445V8.56349H35.7113V0.116864Z" fill="white"/>
<path d="M43.1586 0.116864H48.0489L47.9113 1.31862H44.5918V3.64598H47.722V4.77196H44.5918V7.3502H48.0889L47.9685 8.56349H43.1586V0.116864Z" fill="white"/>
<path d="M53.3692 0.116864H54.8024V8.56349H53.3692V0.116864Z" fill="white"/>
<path d="M58.5919 1.33617H56.0176L56.1439 0.116864H62.6053L62.4732 1.33617H60.0251V8.56349H58.5919V1.33617Z" fill="white"/>
<path d="M72.5407 7.11386C72.9417 6.83984 73.2418 6.46277 73.4407 5.98229C73.6392 5.50219 73.7386 4.95264 73.7386 4.3344C73.7386 3.72773 73.6506 3.18752 73.4752 2.71264C73.2991 2.23813 73.018 1.86032 72.6324 1.57808C72.246 1.29621 71.7492 1.15509 71.1416 1.15509C70.5604 1.15509 70.0676 1.29808 69.6626 1.58405C69.2571 1.86965 68.9533 2.25307 68.7511 2.73317C68.5482 3.21365 68.447 3.74341 68.447 4.32282C68.447 4.93322 68.5424 5.47978 68.7339 5.96176C68.9247 6.4441 69.2171 6.82528 69.6108 7.10528C70.0045 7.38528 70.4918 7.52528 71.073 7.52528C71.6498 7.52528 72.1393 7.38789 72.5407 7.11386ZM68.8256 8.14949C68.2177 7.79557 67.7535 7.29867 67.4324 6.65877C67.1114 6.01925 66.9507 5.27557 66.9507 4.42773C66.9507 3.53733 67.1217 2.75856 67.464 2.09141C67.8056 1.42464 68.2987 0.909439 68.943 0.545439C69.587 0.182186 70.3465 0 71.222 0C72.0589 0 72.7792 0.176214 73.3835 0.527894C73.987 0.88032 74.4475 1.37498 74.7649 2.01264C75.0819 2.65066 75.2408 3.38949 75.2408 4.22949C75.2408 5.13557 75.0676 5.9233 74.722 6.59194C74.376 7.26058 73.8828 7.77616 73.2429 8.13754C72.6027 8.4993 71.8505 8.68015 70.9867 8.68015C70.1535 8.68015 69.4332 8.50341 68.8256 8.14949Z" fill="white"/>
<path d="M76.8402 0.116864H78.4858L82.5913 6.66177C82.5546 6.03979 82.5399 5.46598 82.5399 4.94108V0.116864H83.8681V8.56349H82.2757L78.1075 1.91334C78.1494 2.66822 78.1703 3.33686 78.1703 3.92001V8.56349H76.8402V0.116864Z" fill="white"/>
</g>
</svg>
