<svg width="53" height="10" viewBox="0 0 53 10" fill="none" xmlns="http://www.w3.org/2000/svg">
<path id="Get it on" d="M4.37379 9.08251C3.15847 9.08251 2.11312 8.64086 1.2703 7.77056C0.427067 6.89967 0 5.80922 0 4.54126C0 3.2733 0.427278 2.18479 1.2703 1.31196C2.11312 0.44151 3.15848 9.53674e-06 4.37379 9.53674e-06C4.99294 9.53674e-06 5.5708 0.110457 6.12303 0.34044C6.67547 0.570449 7.12744 0.889743 7.48336 1.30759L7.56728 1.4063L6.61919 2.38521L6.52441 2.26489C6.2884 1.96537 5.9882 1.73267 5.60782 1.56353C5.22882 1.3948 4.8137 1.31688 4.37379 1.31688C3.51778 1.31688 2.80753 1.61711 2.21443 2.22743C2.21429 2.22757 2.21402 2.22756 2.21389 2.22771C1.63426 2.85035 1.34283 3.60843 1.34283 4.54127C1.34283 5.47483 1.63461 6.23306 2.21494 6.85592C2.80805 7.46598 3.51824 7.76783 4.37377 7.76783C5.15736 7.76783 5.80544 7.54192 6.31497 7.09463H6.31524C6.78957 6.67837 7.07423 6.11584 7.17491 5.39877H4.23823V4.10814H8.44415L8.46216 4.22627C8.49661 4.45314 8.52093 4.67215 8.52093 4.88252C8.52093 6.08676 8.16545 7.06978 7.468 7.79299C6.68068 8.65497 5.64526 9.08252 4.37378 9.08252L4.37379 9.08251ZM40.8949 9.08251C39.6777 9.08251 38.6446 8.64065 37.8126 7.77056C37.8125 7.77046 37.8125 7.77042 37.8123 7.77028C37.8122 7.77019 37.8122 7.77014 37.812 7.77C36.9789 6.90928 36.5656 5.81859 36.5656 4.54125C36.5656 3.26391 36.9789 2.17321 37.812 1.3125C37.8121 1.3124 37.8122 1.31236 37.8123 1.31222L37.8126 1.31194C38.6446 0.441697 39.6777 -1.52588e-05 40.8949 -1.52588e-05C42.1097 -1.52588e-05 43.1431 0.441808 43.9751 1.32506C44.8085 2.18564 45.2221 3.27426 45.2221 4.54123C45.2221 5.81858 44.8087 6.90927 43.9756 7.76999L43.9753 7.77027C43.1429 8.64098 42.0998 9.08249 40.8949 9.08249L40.8949 9.08251ZM9.72452 8.89439V0.188135H9.86008H14.7591V1.50501H11.0441V3.89595H14.3948V5.18657H11.0441V7.5797H14.7591V8.89439H9.72452ZM17.8404 8.89439V1.50501H15.5614V0.188135H21.439V1.50501H21.3034H19.1599V8.89439H17.8404ZM25.1953 8.89439V0.188135H26.5149V0.328135V8.89439H25.1953ZM29.8365 8.89439V1.50501H27.5575V0.188135H33.4351V1.50501H33.2995H31.1561V8.89439H29.8365ZM46.3934 8.89439V0.188135H47.8813L51.6681 6.44931L51.6356 5.26067V0.188135H52.9551V8.89439H51.6493L47.6803 2.31685L47.7129 3.50466V3.50657V8.89439H46.3934ZM40.8949 7.76782C41.7509 7.76782 42.4497 7.46629 43.0193 6.857L43.0201 6.85588L43.0209 6.85504C43.5987 6.25822 43.8814 5.48989 43.8814 4.54122C43.8814 3.59485 43.5985 2.82395 43.0209 2.22739L43.0201 2.22655L43.0193 2.22571C42.4498 1.61653 41.7511 1.3168 40.8949 1.3168C40.0373 1.3168 39.3386 1.616 38.7583 2.22516L38.7578 2.22572C38.1907 2.83676 37.9084 3.59511 37.9084 4.54119C37.9084 5.48957 38.1906 6.24551 38.7578 6.85666L38.7583 6.85722C39.3387 7.46648 40.0375 7.76776 40.8949 7.76776V7.76782Z" fill="white"/>
</svg>
