<svg width="32" height="36" viewBox="0 0 32 36" fill="none" xmlns="http://www.w3.org/2000/svg">
<g id="Google Play logo">
<path id="Vector" d="M14.9407 17.1927L0.136719 33.0088C0.137275 33.0121 0.138387 33.0148 0.138943 33.0181C0.592943 34.7354 2.15128 36 4.00079 36C4.74012 36 5.43426 35.7988 6.02953 35.4456L6.07681 35.4177L22.7406 25.7388L14.9407 17.1927Z" fill="#EA4335"/>
<path id="Vector_2" d="M29.9189 14.4995L29.9048 14.4897L22.7106 10.2917L14.6055 17.5515L22.7388 25.7372L29.895 21.5809C31.1497 20.8991 32.0014 19.5678 32.0014 18.0325C32.0014 16.5083 31.1611 15.1835 29.9189 14.4995Z" fill="#FBBC04"/>
<path id="Vector_3" d="M0.135769 2.99054C0.0467769 3.32086 0 3.66685 0 4.02614V31.9739C0 32.3325 0.0462203 32.6796 0.136325 33.0088L15.4498 17.5973L0.135769 2.99054Z" fill="#4285F4"/>
<path id="Vector_4" d="M15.0504 17.9998L22.7129 10.2891L6.06805 0.575253C5.46304 0.210503 4.75694 -1.90735e-06 4.00134 -1.90735e-06C2.15184 -1.90735e-06 0.591413 1.26682 0.137275 2.9863C0.136718 2.98798 0.136719 2.9891 0.136719 2.99064L15.0504 17.9998Z" fill="#34A853"/>
</g>
</svg>
