<svg width="33" height="32" viewBox="0 0 33 32" fill="none" xmlns="http://www.w3.org/2000/svg">
<g id="flat-color-icons:google">
<path id="Vector" d="M29.8243 13.3887H28.7503V13.3333H16.7503V18.6667H24.2857C23.1863 21.7713 20.2323 24 16.7503 24C12.3323 24 8.75033 20.418 8.75033 16C8.75033 11.582 12.3323 7.99999 16.7503 7.99999C18.7897 7.99999 20.645 8.76932 22.0577 10.026L25.829 6.25466C23.4477 4.03532 20.2623 2.66666 16.7503 2.66666C9.38699 2.66666 3.41699 8.63666 3.41699 16C3.41699 23.3633 9.38699 29.3333 16.7503 29.3333C24.1137 29.3333 30.0837 23.3633 30.0837 16C30.0837 15.106 29.9917 14.2333 29.8243 13.3887Z" fill="#FFC107"/>
<path id="Vector_2" d="M4.9541 9.79399L9.33477 13.0067C10.5201 10.072 13.3908 7.99999 16.7501 7.99999C18.7894 7.99999 20.6448 8.76932 22.0574 10.026L25.8288 6.25466C23.4474 4.03532 20.2621 2.66666 16.7501 2.66666C11.6288 2.66666 7.18743 5.55799 4.9541 9.79399Z" fill="#FF3D00"/>
<path id="Vector_3" d="M16.7499 29.3333C20.1939 29.3333 23.3232 28.0153 25.6892 25.872L21.5625 22.38C20.1789 23.4323 18.4882 24.0014 16.7499 24C13.2819 24 10.3372 21.7887 9.22788 18.7027L4.87988 22.0527C7.08655 26.3707 11.5679 29.3333 16.7499 29.3333Z" fill="#4CAF50"/>
<path id="Vector_4" d="M29.824 13.3887H28.75V13.3333H16.75V18.6667H24.2853C23.7595 20.1443 22.8122 21.4355 21.5607 22.3807L21.5627 22.3793L25.6893 25.8713C25.3973 26.1367 30.0833 22.6667 30.0833 16C30.0833 15.106 29.9913 14.2333 29.824 13.3887Z" fill="#1976D2"/>
</g>
</svg>
