<svg width="115" height="24" viewBox="0 0 115 24" fill="none" xmlns="http://www.w3.org/2000/svg">
<path id="Google Play" d="M89.3238 18.2163H91.8533V0.714092H89.3238V18.2163ZM112.107 7.01913L109.207 14.607H109.12L106.111 7.01913H103.386L107.9 17.6241L105.326 23.5238H107.964L114.919 7.01913H112.107ZM97.7608 16.2285C96.9339 16.2285 95.7776 15.8002 95.7776 14.7421C95.7776 13.3912 97.2172 12.8734 98.4589 12.8734C99.5704 12.8734 100.095 13.1206 100.77 13.4586C100.574 15.0801 99.2221 16.2285 97.7608 16.2285ZM98.0671 6.63623C96.2358 6.63623 94.3393 7.46965 93.5545 9.31597L95.7993 10.2839C96.2791 9.31597 97.1725 9.00097 98.1105 9.00097C99.4186 9.00097 100.748 9.81087 100.77 11.2525V11.4324C100.312 11.1622 99.3305 10.757 98.1322 10.757C95.7112 10.757 93.2481 12.1301 93.2481 14.6972C93.2481 17.0389 95.2327 18.5477 97.4558 18.5477C99.1556 18.5477 100.095 17.7597 100.682 16.8361H100.77V18.1879H103.213V11.4772C103.213 8.36985 100.965 6.63623 98.0671 6.63623ZM82.4349 9.14965H78.8372V3.15051H82.4349C84.3259 3.15051 85.3995 4.76709 85.3995 6.15001C85.3995 7.50633 84.3259 9.14965 82.4349 9.14965ZM82.3698 0.714092H76.3088V18.2163H78.8372V11.5855H82.3698C85.1731 11.5855 87.9289 9.48985 87.9289 6.15001C87.9289 2.81087 85.1731 0.714092 82.3698 0.714092ZM49.3194 16.2317C47.572 16.2317 46.1095 14.7201 46.1095 12.6459C46.1095 10.5476 47.572 9.01455 49.3194 9.01455C51.0447 9.01455 52.3986 10.5476 52.3986 12.6459C52.3986 14.7201 51.0447 16.2317 49.3194 16.2317ZM52.2239 7.99913H52.1364C51.5689 7.30011 50.4764 6.66857 49.1013 6.66857C46.2181 6.66857 43.5758 9.28531 43.5758 12.6459C43.5758 15.9835 46.2181 18.5773 49.1013 18.5773C50.4764 18.5773 51.5689 17.9456 52.1364 17.2243H52.2239V18.0807C52.2239 20.3595 51.0447 21.5769 49.1447 21.5769C47.5948 21.5769 46.6338 20.4268 46.2403 19.4572L44.035 20.4044C44.6677 21.9827 46.3489 23.923 49.1447 23.923C52.1153 23.923 54.6267 22.1183 54.6267 17.7198V7.02949H52.2239V7.99913ZM56.3742 18.2163H58.9063V0.714092H56.3742V18.2163ZM62.641 12.4425C62.5758 10.1417 64.3672 8.96919 65.655 8.96919C66.66 8.96919 67.5109 9.48817 67.7958 10.232L62.641 12.4425ZM70.5027 10.4573C70.0224 9.12725 68.5594 6.66857 65.5675 6.66857C62.597 6.66857 60.1295 9.08189 60.1295 12.6229C60.1295 15.9611 62.5758 18.5773 65.8509 18.5773C68.4931 18.5773 70.0224 16.9087 70.6562 15.9385L68.6906 14.585C68.0352 15.5776 67.1403 16.2317 65.8509 16.2317C64.5631 16.2317 63.6455 15.6226 63.0566 14.4271L70.7647 11.1343L70.5027 10.4573ZM9.08547 8.49557V11.0216H14.9381C14.7634 12.4425 14.3048 13.4799 13.6058 14.2017C12.7539 15.081 11.4216 16.0512 9.08547 16.0512C5.482 16.0512 2.66502 13.0516 2.66502 9.33011C2.66502 5.60863 5.482 2.60857 9.08547 2.60857C11.0292 2.60857 12.4483 3.39817 13.4967 4.41317L15.2225 2.63097C13.7589 1.18771 11.8156 0.0825539 9.08547 0.0825539C4.14922 0.0825539 0 4.23271 0 9.33011C0 14.4271 4.14922 18.5773 9.08547 18.5773C11.7494 18.5773 13.7589 17.675 15.3311 15.9835C16.9472 14.3144 17.4497 11.9688 17.4497 10.0739C17.4497 9.48817 17.4056 8.94679 17.3183 8.49557H9.08547ZM24.1035 16.2317C22.3561 16.2317 20.8491 14.7431 20.8491 12.6229C20.8491 10.4802 22.3561 9.01455 24.1035 9.01455C25.8503 9.01455 27.3573 10.4802 27.3573 12.6229C27.3573 14.7431 25.8503 16.2317 24.1035 16.2317ZM24.1035 6.66857C20.9142 6.66857 18.3159 9.17205 18.3159 12.6229C18.3159 16.0512 20.9142 18.5773 24.1035 18.5773C27.2917 18.5773 29.8905 16.0512 29.8905 12.6229C29.8905 9.17205 27.2917 6.66857 24.1035 6.66857ZM36.7276 16.2317C34.9813 16.2317 33.4738 14.7431 33.4738 12.6229C33.4738 10.4802 34.9813 9.01455 36.7276 9.01455C38.475 9.01455 39.9814 10.4802 39.9814 12.6229C39.9814 14.7431 38.475 16.2317 36.7276 16.2317ZM36.7276 6.66857C33.5394 6.66857 30.9411 9.17205 30.9411 12.6229C30.9411 16.0512 33.5394 18.5773 36.7276 18.5773C39.9169 18.5773 42.5152 16.0512 42.5152 12.6229C42.5152 9.17205 39.9169 6.66857 36.7276 6.66857Z" fill="white"/>
</svg>
