<svg width="32" height="32" viewBox="0 0 32 32" fill="none" xmlns="http://www.w3.org/2000/svg">
<g id="ri:instagram-fill">
<path id="Vector" d="M17.3688 2.66801C18.3418 2.66427 19.3148 2.67405 20.2875 2.69734L20.5462 2.70667C20.8448 2.71734 21.1395 2.73067 21.4955 2.74667C22.9142 2.81334 23.8822 3.03734 24.7315 3.36667C25.6115 3.70534 26.3528 4.16401 27.0942 4.90534C27.772 5.57148 28.2966 6.37727 28.6315 7.26667C28.9608 8.11601 29.1848 9.08534 29.2515 10.504C29.2675 10.8587 29.2808 11.1547 29.2915 11.4533L29.2995 11.712C29.3232 12.6843 29.3334 13.6568 29.3302 14.6293L29.3315 15.624V17.3707C29.3348 18.3437 29.3246 19.3166 29.3008 20.2893L29.2928 20.548C29.2822 20.8467 29.2688 21.1413 29.2528 21.4973C29.1862 22.916 28.9595 23.884 28.6315 24.7333C28.2977 25.6237 27.773 26.4301 27.0942 27.096C26.4275 27.7738 25.6212 28.2983 24.7315 28.6333C23.8822 28.9627 22.9142 29.1867 21.4955 29.2533C21.1395 29.2693 20.8448 29.2827 20.5462 29.2933L20.2875 29.3013C19.3148 29.325 18.3418 29.3353 17.3688 29.332L16.3742 29.3333H14.6288C13.6558 29.3366 12.6829 29.3264 11.7102 29.3027L11.4515 29.2947C11.135 29.2832 10.8185 29.2699 10.5022 29.2547C9.0835 29.188 8.1155 28.9613 7.26483 28.6333C6.37508 28.2991 5.56915 27.7744 4.9035 27.096C4.22489 26.4297 3.6998 25.6234 3.36483 24.7333C3.0355 23.884 2.8115 22.916 2.74483 21.4973C2.72998 21.181 2.71665 20.8645 2.70483 20.548L2.69817 20.2893C2.67358 19.3167 2.66247 18.3437 2.66483 17.3707V14.6293C2.66111 13.6568 2.67089 12.6843 2.69417 11.712L2.7035 11.4533C2.71417 11.1547 2.7275 10.8587 2.7435 10.504C2.81017 9.08401 3.03417 8.11734 3.3635 7.26667C3.69866 6.37683 4.22478 5.57127 4.90483 4.90667C5.57002 4.22768 6.37545 3.7021 7.26483 3.36667C8.1155 3.03734 9.08216 2.81334 10.5022 2.74667L11.4515 2.70667L11.7102 2.70001C12.6824 2.67544 13.6549 2.66433 14.6275 2.66667L17.3688 2.66801ZM15.9982 9.33467C15.1148 9.32218 14.2378 9.48537 13.4181 9.81476C12.5984 10.1442 11.8524 10.6332 11.2233 11.2534C10.5942 11.8736 10.0947 12.6127 9.75375 13.4277C9.4128 14.2427 9.23722 15.1173 9.23722 16.0007C9.23722 16.8841 9.4128 17.7587 9.75375 18.5737C10.0947 19.3886 10.5942 20.1277 11.2233 20.7479C11.8524 21.3682 12.5984 21.8572 13.4181 22.1866C14.2378 22.516 15.1148 22.6792 15.9982 22.6667C17.7663 22.6667 19.462 21.9643 20.7122 20.7141C21.9625 19.4638 22.6648 17.7681 22.6648 16C22.6648 14.2319 21.9625 12.5362 20.7122 11.286C19.462 10.0357 17.7663 9.33467 15.9982 9.33467ZM15.9982 12.0013C16.5295 11.9916 17.0575 12.0877 17.5512 12.2843C18.045 12.4808 18.4946 12.7738 18.8739 13.1461C19.2531 13.5183 19.5544 13.9625 19.7601 14.4525C19.9658 14.9425 20.0718 15.4686 20.0719 16C20.0719 16.5314 19.9661 17.0576 19.7606 17.5476C19.5551 18.0377 19.254 18.4819 18.8748 18.8543C18.4957 19.2267 18.0462 19.5198 17.5525 19.7165C17.0588 19.9133 16.5308 20.0096 15.9995 20C14.9386 20 13.9212 19.5786 13.1711 18.8284C12.4209 18.0783 11.9995 17.0609 11.9995 16C11.9995 14.9391 12.4209 13.9217 13.1711 13.1716C13.9212 12.4214 14.9386 12 15.9995 12L15.9982 12.0013ZM22.9982 7.33467C22.568 7.35189 22.1612 7.53487 21.863 7.8453C21.5647 8.15573 21.3982 8.56952 21.3982 9.00001C21.3982 9.43049 21.5647 9.84428 21.863 10.1547C22.1612 10.4651 22.568 10.6481 22.9982 10.6653C23.4402 10.6653 23.8641 10.4897 24.1767 10.1772C24.4892 9.86462 24.6648 9.4407 24.6648 8.99867C24.6648 8.55665 24.4892 8.13272 24.1767 7.82016C23.8641 7.5076 23.4402 7.33201 22.9982 7.33201V7.33467Z" fill="white" fill-opacity="0.75"/>
</g>
</svg>
