<svg width="32" height="33" viewBox="0 0 32 33" fill="none" xmlns="http://www.w3.org/2000/svg">
<g id="Frame">
<path id="Vector" d="M16.1648 27.83C22.331 27.83 27.3298 22.8313 27.3298 16.665C27.3298 10.4987 22.331 5.5 16.1648 5.5M16.1648 27.83C9.99849 27.83 4.99976 22.8313 4.99976 16.665C4.99976 10.4987 9.99849 5.5 16.1648 5.5M16.1648 27.83C18.761 27.83 20.8658 22.8313 20.8658 16.665C20.8658 10.4987 18.761 5.5 16.1648 5.5M16.1648 27.83C13.5684 27.83 11.4637 22.8313 11.4637 16.665C11.4637 10.4987 13.5684 5.5 16.1648 5.5M5.58739 13.1392H26.7421M5.58739 20.1908H26.7421" stroke="white" stroke-width="1.5" stroke-linecap="round" stroke-linejoin="round"/>
</g>
</svg>
