<svg width="134" height="20" viewBox="0 0 134 20" fill="none" xmlns="http://www.w3.org/2000/svg">
<g id="TOMOSHA">
<path d="M10.2635 19.7222H5.52649V4.16667H0V0.277777H15.79V4.16667H10.2635V19.7222Z" fill="white"/>
<path d="M29.4777 5.55555C29.4777 4.44444 28.9514 3.88889 27.8987 3.88889H23.4249C22.3722 3.88889 21.8459 4.44444 21.8459 5.55555V14.4444C21.8459 15.5556 22.3722 16.1111 23.4249 16.1111H27.8987C28.9514 16.1111 29.4777 15.5556 29.4777 14.4444V5.55555ZM34.2147 14.4444C34.2147 16.3889 33.7936 17.8056 32.9515 18.6944C32.1269 19.5648 30.7936 20 28.9514 20H22.3722C20.5301 20 19.1879 19.5648 18.3458 18.6944C17.5212 17.8056 17.1089 16.3889 17.1089 14.4444V5.55555C17.1089 3.61111 17.5212 2.2037 18.3458 1.33333C19.1879 0.444444 20.5301 0 22.3722 0H28.9514C30.7936 0 32.1269 0.444444 32.9515 1.33333C33.7936 2.2037 34.2147 3.61111 34.2147 5.55555V14.4444Z" fill="white"/>
<path d="M52.6487 8.88889L48.9644 15.8333H45.28L41.5957 8.88889V19.7222H36.8587V0.277777H41.8589L47.1222 10.5556L52.3855 0.277777H57.3857V19.7222H52.6487V8.88889Z" fill="white"/>
<path d="M72.3965 5.55555C72.3965 4.44444 71.8701 3.88889 70.8175 3.88889H66.3436C65.291 3.88889 64.7646 4.44444 64.7646 5.55555V14.4444C64.7646 15.5556 65.291 16.1111 66.3436 16.1111H70.8175C71.8701 16.1111 72.3965 15.5556 72.3965 14.4444V5.55555ZM77.1334 14.4444C77.1334 16.3889 76.7124 17.8056 75.8702 18.6944C75.0457 19.5648 73.7123 20 71.8701 20H65.291C63.4488 20 62.1066 19.5648 61.2645 18.6944C60.4399 17.8056 60.0276 16.3889 60.0276 14.4444V5.55555C60.0276 3.61111 60.4399 2.2037 61.2645 1.33333C62.1066 0.444444 63.4488 0 65.291 0H71.8701C73.7123 0 75.0457 0.444444 75.8702 1.33333C76.7124 2.2037 77.1334 3.61111 77.1334 5.55555V14.4444Z" fill="white"/>
<path d="M79.2248 15.6944C84.032 15.9722 87.2865 16.1111 88.9883 16.1111C89.3918 16.1111 89.7076 15.9907 89.9357 15.75C90.1813 15.4907 90.3041 15.1481 90.3041 14.7222V12.2222H84.2513C82.4091 12.2222 81.067 11.787 80.2248 10.9167C79.4002 10.0278 78.9879 8.61111 78.9879 6.66667V5.83333C78.9879 3.88889 79.4002 2.48148 80.2248 1.61111C81.067 0.722222 82.4091 0.277777 84.2513 0.277777H93.4884V4.16667H85.3039C84.2513 4.16667 83.7249 4.72222 83.7249 5.83333V6.38889C83.7249 7.5 84.2513 8.05556 85.3039 8.05556H90.0409C91.7603 8.05556 93.0235 8.48148 93.8305 9.33333C94.6376 10.1852 95.0411 11.5185 95.0411 13.3333V14.7222C95.0411 16.537 94.6376 17.8704 93.8305 18.7222C93.0235 19.5741 91.7603 20 90.0409 20C89.1462 20 88.1988 19.9815 87.1987 19.9444L84.7776 19.8333C82.9881 19.7407 81.1371 19.6111 79.2248 19.4444V15.6944Z" fill="white"/>
<path d="M113.461 19.7222H108.724V11.8056H102.145V19.7222H97.4075V0.277777H102.145V7.91667H108.724V0.277777H113.461V19.7222Z" fill="white"/>
<path d="M119.921 19.7222H114.789L121.763 0.277777H127.026L134 19.7222H128.868L127.684 16.25H121.105L119.921 19.7222ZM122.289 12.6389H126.5L124.394 6.11111L122.289 12.6389Z" fill="white"/>
</g>
</svg>
