<svg width="33" height="32" viewBox="0 0 33 32" fill="none" xmlns="http://www.w3.org/2000/svg">
<g id="mdi:odnoklassniki">
<path id="Vector" d="M24.0234 16.9867C23.6501 16.2267 22.5967 15.5867 21.1967 16.6667C19.2901 18.1867 16.2501 18.1867 16.2501 18.1867C16.2501 18.1867 13.2101 18.1867 11.3034 16.6667C9.9034 15.5867 8.85007 16.2267 8.47673 16.9867C7.81007 18.32 8.55673 18.9733 10.2501 20.0533C11.7034 20.9867 13.6901 21.3333 14.9701 21.4667L13.9034 22.5333C12.3834 24.04 10.9167 25.4933 9.91673 26.5067C9.31673 27.12 9.31673 28.0933 9.91673 28.6667L10.1034 28.88C10.7034 29.48 11.6901 29.48 12.2901 28.88L16.2501 24.9067C17.7834 26.4133 19.2367 27.8667 20.2501 28.88C20.8501 29.48 21.8234 29.48 22.4367 28.88L22.6101 28.6667C23.2234 28.0933 23.2234 27.12 22.6101 26.5067L18.6367 22.5333L17.5834 21.4533C18.8501 21.3333 20.8101 20.9733 22.2501 20.0533C23.9434 18.9733 24.6901 18.32 24.0234 16.9867ZM16.2501 6.09332C18.0901 6.09332 19.5834 7.58666 19.5834 9.41332C19.5834 11.2533 18.0901 12.7333 16.2501 12.7333C14.4101 12.7333 12.9167 11.2533 12.9167 9.41332C12.9167 7.58666 14.4101 6.09332 16.2501 6.09332ZM16.2501 16.16C19.9834 16.16 22.9967 13.1467 22.9967 9.41332C22.9967 7.624 22.2859 5.90795 21.0207 4.64271C19.7554 3.37746 18.0394 2.66666 16.2501 2.66666C14.4607 2.66666 12.7447 3.37746 11.4795 4.64271C10.2142 5.90795 9.5034 7.624 9.5034 9.41332C9.5034 13.1467 12.5167 16.16 16.2501 16.16Z" fill="#FF8800"/>
</g>
</svg>
