<svg width="32" height="32" viewBox="0 0 32 32" fill="none" xmlns="http://www.w3.org/2000/svg">
<g id="basil:vk-solid">
<path id="Vector" d="M28.6707 24.508H25.6293C24.4787 24.508 24.132 23.576 22.0693 21.512C20.2667 19.7747 19.5053 19.5587 19.0493 19.5587C18.4187 19.5587 18.2467 19.732 18.2467 20.6V23.336C18.2467 24.076 18.0067 24.5093 16.0733 24.5093C14.1977 24.3833 12.3789 23.8135 10.7666 22.8469C9.15437 21.8802 7.79483 20.5444 6.8 18.9493C4.43785 16.0094 2.79428 12.5588 2 8.872C2 8.416 2.17333 8.00266 3.04267 8.00266H6.08267C6.864 8.00266 7.14533 8.35066 7.452 9.15466C8.928 13.4987 11.4467 17.2773 12.4693 17.2773C12.8613 17.2773 13.032 17.104 13.032 16.1267V11.652C12.9027 9.61066 11.8187 9.43866 11.8187 8.7C11.8324 8.50512 11.9215 8.32326 12.0672 8.19305C12.2128 8.06285 12.4035 7.99455 12.5987 8.00266H17.3773C18.0307 8.00266 18.2467 8.328 18.2467 9.10933V15.1493C18.2467 15.8013 18.5267 16.0173 18.724 16.0173C19.116 16.0173 19.4173 15.8013 20.136 15.084C21.6765 13.2053 22.935 11.1122 23.872 8.87066C23.9679 8.60153 24.1492 8.37116 24.3883 8.21469C24.6273 8.05821 24.911 7.98422 25.196 8.004H28.2373C29.1493 8.004 29.3427 8.46 29.1493 9.11066C28.0432 11.5886 26.6744 13.9407 25.0667 16.1267C24.7387 16.6267 24.608 16.8867 25.0667 17.4733C25.368 17.9293 26.4347 18.82 27.1507 19.6667C28.1933 20.7067 29.0587 21.9093 29.7133 23.2267C29.9747 24.0747 29.5387 24.508 28.6707 24.508Z" fill="white" fill-opacity="0.75"/>
</g>
</svg>
