<svg width="32" height="32" viewBox="0 0 32 32" fill="none" xmlns="http://www.w3.org/2000/svg">
<g id="ic:round-close">
<path id="Vector" d="M24.4003 7.61333C24.2769 7.48972 24.1304 7.39166 23.9691 7.32475C23.8078 7.25784 23.6349 7.2234 23.4603 7.2234C23.2857 7.2234 23.1128 7.25784 22.9515 7.32475C22.7902 7.39166 22.6436 7.48972 22.5203 7.61333L16.0003 14.12L9.4803 7.59999C9.35686 7.47655 9.21031 7.37863 9.04902 7.31182C8.88774 7.24502 8.71487 7.21063 8.5403 7.21063C8.36572 7.21063 8.19286 7.24502 8.03157 7.31182C7.87029 7.37863 7.72374 7.47655 7.6003 7.59999C7.47686 7.72344 7.37894 7.86998 7.31213 8.03127C7.24532 8.19255 7.21094 8.36542 7.21094 8.53999C7.21094 8.71457 7.24532 8.88743 7.31213 9.04872C7.37894 9.21 7.47686 9.35655 7.6003 9.47999L14.1203 16L7.6003 22.52C7.47686 22.6434 7.37894 22.79 7.31213 22.9513C7.24532 23.1126 7.21094 23.2854 7.21094 23.46C7.21094 23.6346 7.24532 23.8074 7.31213 23.9687C7.37894 24.13 7.47686 24.2765 7.6003 24.4C7.72374 24.5234 7.87029 24.6214 8.03157 24.6882C8.19286 24.755 8.36572 24.7894 8.5403 24.7894C8.71487 24.7894 8.88774 24.755 9.04902 24.6882C9.21031 24.6214 9.35686 24.5234 9.4803 24.4L16.0003 17.88L22.5203 24.4C22.6437 24.5234 22.7903 24.6214 22.9516 24.6882C23.1129 24.755 23.2857 24.7894 23.4603 24.7894C23.6349 24.7894 23.8077 24.755 23.969 24.6882C24.1303 24.6214 24.2769 24.5234 24.4003 24.4C24.5237 24.2765 24.6217 24.13 24.6885 23.9687C24.7553 23.8074 24.7897 23.6346 24.7897 23.46C24.7897 23.2854 24.7553 23.1126 24.6885 22.9513C24.6217 22.79 24.5237 22.6434 24.4003 22.52L17.8803 16L24.4003 9.47999C24.907 8.97333 24.907 8.11999 24.4003 7.61333Z" fill="white" fill-opacity="0.75"/>
</g>
</svg>
