<svg width="33" height="32" viewBox="0 0 33 32" fill="none" xmlns="http://www.w3.org/2000/svg">
<g id="vscode-icons:file-type-yandex">
<path id="Vector" d="M22.1305 2H18.1305C14.1305 2 10.0605 5 10.0605 11.62C9.97682 13.1544 10.3193 14.6821 11.0499 16.034C11.7806 17.3859 12.871 18.5093 14.2005 19.28L9.25045 28.13C9.13699 28.3224 9.07715 28.5417 9.07715 28.765C9.07715 28.9883 9.13699 29.2076 9.25045 29.4C9.35309 29.5762 9.49857 29.7235 9.6734 29.8284C9.84822 29.9333 10.0467 29.9923 10.2505 30H12.7405C12.9931 30.0123 13.2435 29.947 13.4579 29.813C13.6724 29.6789 13.8408 29.4825 13.9405 29.25L18.5305 20.25H18.8705V28.87C18.8716 29.024 18.9039 29.1763 18.9655 29.3175C19.0272 29.4587 19.1167 29.5859 19.2289 29.6915C19.341 29.7971 19.4734 29.8789 19.6181 29.9319C19.7627 29.985 19.9166 30.0081 20.0705 30H22.2505C22.5442 30.0109 22.8305 29.9059 23.0475 29.7076C23.2646 29.5093 23.3949 29.2336 23.4105 28.94V3.22C23.4144 3.06371 23.3876 2.90817 23.3315 2.76227C23.2753 2.61636 23.191 2.48295 23.0832 2.36965C22.9755 2.25635 22.8465 2.16539 22.7036 2.10196C22.5607 2.03854 22.4067 2.00389 22.2505 2H22.1305ZM18.9505 16.28H18.3605C16.0605 16.28 14.7005 14.41 14.7005 11.28C14.7005 7.38 16.4305 5.99 18.0405 5.99H18.9805L18.9505 16.28Z" fill="#D61E3B"/>
</g>
</svg>
