<svg width="32" height="32" viewBox="0 0 32 32" fill="none" xmlns="http://www.w3.org/2000/svg">
<g id="icons8-&#209;&#143;&#208;&#189;&#208;&#180;&#208;&#181;&#208;&#186;&#209;&#129;-&#208;&#177;&#209;&#139;&#208;&#187; 1">
<path id="Vector" d="M30.0112 15.3511C30.0137 15.3511 30.0156 15.3511 30.0182 15.3511C30.1968 15.3511 30.367 15.2762 30.488 15.145C30.6108 15.0119 30.6716 14.8333 30.6556 14.6528C30.0131 7.58529 24.4176 1.98785 17.3494 1.34401C17.1702 1.32993 16.9897 1.38817 16.8566 1.51169C16.7235 1.63457 16.6492 1.80801 16.6512 1.98913C16.7625 11.3818 18.0016 15.2199 30.0112 15.3511ZM30.0112 16.649C18.0016 16.7802 16.7632 20.6182 16.6518 30.0109C16.6499 30.192 16.7241 30.3654 16.8572 30.4883C16.9763 30.5978 17.1318 30.6586 17.2918 30.6586C17.311 30.6586 17.3308 30.6579 17.35 30.656C24.4182 30.0122 30.0137 24.4154 30.6556 17.3472C30.6716 17.1667 30.6115 16.9882 30.488 16.8551C30.3644 16.7219 30.1923 16.656 30.0112 16.649ZM14.6057 1.34721C7.55996 2.00961 1.98236 7.60577 1.343 14.6541C1.327 14.8346 1.38716 15.0131 1.51068 15.1463C1.63164 15.2775 1.80252 15.3517 1.98044 15.3517C1.983 15.3517 1.98556 15.3517 1.98812 15.3517C13.958 15.2141 15.1939 11.3779 15.3065 1.99169C15.3084 1.81057 15.2336 1.63649 15.1004 1.51361C14.966 1.39073 14.7862 1.33057 14.6057 1.34721ZM1.98748 16.6483C1.78844 16.6259 1.63228 16.7207 1.51004 16.8538C1.38716 16.9869 1.32636 17.1655 1.34236 17.3459C1.98172 24.3943 7.55996 29.9904 14.6057 30.6528C14.6256 30.6547 14.646 30.6554 14.6659 30.6554C14.8259 30.6554 14.9808 30.5952 15.0998 30.4858C15.2329 30.3629 15.3078 30.1888 15.3059 30.0077C15.1932 20.6221 13.958 16.7859 1.98748 16.6483Z" fill="white" fill-opacity="0.75"/>
</g>
</svg>
