<svg width="32" height="32" viewBox="0 0 32 32" fill="none" xmlns="http://www.w3.org/2000/svg">
<g id="basil:youtube-solid">
<path id="Vector" fill-rule="evenodd" clip-rule="evenodd" d="M9.31976 6.52C13.7672 6.17206 18.235 6.17206 22.6824 6.52L25.6691 6.75467C26.478 6.81773 27.2425 7.14974 27.8409 7.69778C28.4392 8.24583 28.8368 8.97837 28.9704 9.77867C29.6598 13.8987 29.6598 18.1027 28.9704 22.2213C28.8369 23.0214 28.4394 23.7538 27.8414 24.3018C27.2433 24.8498 26.4791 25.182 25.6704 25.2453L22.6838 25.4787C18.2359 25.8267 13.7676 25.8267 9.31976 25.4787L6.33309 25.2453C5.52417 25.1823 4.75964 24.8503 4.16133 24.3022C3.56302 23.7542 3.16537 23.0216 3.03176 22.2213C2.34358 18.1023 2.34358 13.8977 3.03176 9.77867C3.16532 8.97858 3.56277 8.24619 4.16081 7.69817C4.75885 7.15015 5.52308 6.81801 6.33176 6.75467L9.31842 6.52133L9.31976 6.52ZM13.3344 19.2933V12.7067C13.3345 12.636 13.3534 12.5666 13.389 12.5055C13.4247 12.4445 13.4759 12.394 13.5374 12.3592C13.5989 12.3244 13.6685 12.3065 13.7392 12.3073C13.8099 12.3082 13.8791 12.3277 13.9398 12.364L19.4291 15.6573C19.4882 15.6929 19.5371 15.7432 19.571 15.8032C19.6049 15.8632 19.6227 15.931 19.6227 16C19.6227 16.069 19.6049 16.1368 19.571 16.1968C19.5371 16.2568 19.4882 16.3071 19.4291 16.3427L13.9398 19.636C13.8791 19.6723 13.8099 19.6918 13.7392 19.6927C13.6685 19.6935 13.5989 19.6756 13.5374 19.6408C13.4759 19.606 13.4247 19.5555 13.389 19.4945C13.3534 19.4334 13.3345 19.364 13.3344 19.2933Z" fill="white" fill-opacity="0.75"/>
</g>
</svg>
